<svg xmlns="http://www.w3.org/2000/svg" width="224.18" height="75.44" viewBox="0 0 224.18 75.44">
  <defs>
    <style>
      .cls-1 {
        fill: #666;
      }

      .cls-2 {
        fill: #104547;
        opacity: 0.95;
      }

      .cls-2, .cls-3 {
        isolation: isolate;
      }

      .cls-4 {
        fill: #fff;
      }
    </style>
  </defs>
  <g id="Layer_2" data-name="Layer 2">
    <g id="Layer_1-2" data-name="Layer 1">
      <path class="cls-1" d="M47.11,35.74l-17.27-.21c5.73,1.71,11.38,2.93,17.27.21" transform="translate(-4.99)"/>
      <path class="cls-1" d="M47.4,41.05c-5.89,2.72-11.54,1.49-17.27-.22l-24-.3,24,.3c-5.94-1.77-12-4.08-18.46-3.07a33.28,33.28,0,0,0-6.39,2.31C5,59.29,23.66,75.09,46.91,75.39" transform="translate(-4.99)"/>
      <path class="cls-1" d="M47.61.44C24.35.15,5.27,15.5,5,34.73H5v0a33.86,33.86,0,0,1,6.4-2.32c6.48-1,12.51,1.3,18.45,3.08l17.27.21" transform="translate(-4.99)"/>
      <path id="Path_7" data-name="Path 7" class="cls-2" d="M51.21,0C74.86,0,94,16.89,94,37.72h0c0,20.83-19.18,37.72-42.83,37.72" transform="translate(-4.99)"/>
      <path class="cls-1" d="M47.11,35.74l-17.27-.21c5.73,1.71,11.38,2.93,17.27.21" transform="translate(-4.99)"/>
      <path class="cls-1" d="M47.4,41.05c-5.89,2.72-11.54,1.49-17.27-.22l-24-.3,24,.3c-5.94-1.77-12-4.08-18.46-3.07a33.28,33.28,0,0,0-6.39,2.31C5,59.29,23.66,75.09,46.91,75.39" transform="translate(-4.99)"/>
      <path class="cls-1" d="M47.61.44C24.35.15,5.27,15.5,5,34.73H5v0a33.86,33.86,0,0,1,6.4-2.32c6.48-1,12.51,1.3,18.45,3.08l17.27.21" transform="translate(-4.99)"/>
      <g class="cls-3">
        <path class="cls-4" d="M101,14.21h2.75l10,11.16V14.21h2.68V32h-1.85L103.71,19.7V31.77H101Z" transform="translate(-4.99)"/>
        <path class="cls-4" d="M132.1,32.16a11.12,11.12,0,0,1-3.95-.69A9.65,9.65,0,0,1,125,29.55a9,9,0,0,1-2.11-2.94,8.88,8.88,0,0,1-.77-3.74,8.51,8.51,0,0,1,.77-3.66A8.41,8.41,0,0,1,125,16.36a9.52,9.52,0,0,1,3.17-1.86,12,12,0,0,1,7.89,0,9.66,9.66,0,0,1,3.18,1.86,8.78,8.78,0,0,1,2.12,2.84,8.51,8.51,0,0,1,.77,3.62,9.46,9.46,0,0,1-.35,2.64,8.73,8.73,0,0,1-1,2.27,8.61,8.61,0,0,1-1.55,1.85,9,9,0,0,1-2,1.39,10.38,10.38,0,0,1-2.4.87A11.34,11.34,0,0,1,132.1,32.16Zm0-1.48a4.26,4.26,0,0,0,2.26-.59A5,5,0,0,0,136,28.47,8.4,8.4,0,0,0,137,26a13.9,13.9,0,0,0,.34-3.13,13.27,13.27,0,0,0-.34-3.06,7.94,7.94,0,0,0-1-2.38,4.85,4.85,0,0,0-1.64-1.55,4.86,4.86,0,0,0-4.53,0,4.76,4.76,0,0,0-1.64,1.55,7.69,7.69,0,0,0-1,2.38,13.29,13.29,0,0,0-.33,3.06,13.92,13.92,0,0,0,.33,3.13,8.14,8.14,0,0,0,1,2.47,4.88,4.88,0,0,0,1.64,1.62A4.25,4.25,0,0,0,132.1,30.68Z" transform="translate(-4.99)"/>
        <path class="cls-4" d="M147.79,14.21h6.59a11,11,0,0,1,3,.35,6.32,6.32,0,0,1,2.12,1,4.28,4.28,0,0,1,1.27,1.52,4.42,4.42,0,0,1,.42,1.92,3.44,3.44,0,0,1-.29,1.42,4.37,4.37,0,0,1-.81,1.23,5.47,5.47,0,0,1-1.26,1,8.14,8.14,0,0,1-1.64.72l6.24,8.41h-4.68l-5.87-7.94h-.76v7.94h-4.3Zm4.3,8.08H153a4.56,4.56,0,0,0,1.46-.22,3.6,3.6,0,0,0,1.16-.63,2.92,2.92,0,0,0,.77-1,3.26,3.26,0,0,0,.28-1.35,3.74,3.74,0,0,0-.22-1.28,3.22,3.22,0,0,0-.58-1,2.57,2.57,0,0,0-.91-.65,2.72,2.72,0,0,0-1.15-.23h-1.74Z" transform="translate(-4.99)"/>
        <path class="cls-4" d="M166.86,14.21h6.35a16.8,16.8,0,0,1,4.5.57,11,11,0,0,1,3.54,1.68,7.69,7.69,0,0,1,2.3,2.71,7.89,7.89,0,0,1,.82,3.66,8.62,8.62,0,0,1-.7,3.48,8.11,8.11,0,0,1-2,2.84,9.64,9.64,0,0,1-3.28,1.92,13.11,13.11,0,0,1-4.47.7h-7ZM171.16,30h2.28a6.12,6.12,0,0,0,2.38-.47,5.53,5.53,0,0,0,2-1.37,6.63,6.63,0,0,0,1.32-2.23,8.84,8.84,0,0,0,.48-3,7.88,7.88,0,0,0-.46-2.74A6.45,6.45,0,0,0,177.85,18a5.83,5.83,0,0,0-4.41-2h-2.28Z" transform="translate(-4.99)"/>
        <path class="cls-4" d="M190.09,14.21h4.28V31.77h-4.28Z" transform="translate(-4.99)"/>
        <path class="cls-4" d="M205,23a8,8,0,0,0,.52,3,6.62,6.62,0,0,0,1.36,2.2,5.87,5.87,0,0,0,2,1.35,6.1,6.1,0,0,0,2.31.46,4.6,4.6,0,0,0,1.71-.32,6.14,6.14,0,0,0,1.48-.86,9.62,9.62,0,0,0,1.3-1.26c.4-.47.79-1,1.16-1.5l1.79,1.32a11.51,11.51,0,0,1-1.4,1.8,10,10,0,0,1-1.84,1.53,9.43,9.43,0,0,1-2.22,1.05,7.86,7.86,0,0,1-2.54.4,12.6,12.6,0,0,1-4.16-.66,9.84,9.84,0,0,1-3.29-1.87A8.45,8.45,0,0,1,201,26.74a8.89,8.89,0,0,1-.77-3.77,9.17,9.17,0,0,1,.73-3.69,8.46,8.46,0,0,1,2.07-2.9,9.58,9.58,0,0,1,3.2-1.92,12.09,12.09,0,0,1,4.13-.68,10.42,10.42,0,0,1,2.76.35,9.13,9.13,0,0,1,2.27,1,8.63,8.63,0,0,1,1.84,1.5,11.44,11.44,0,0,1,1.42,1.93l-1.8,1.26a15.74,15.74,0,0,0-1.21-1.49,9.35,9.35,0,0,0-1.39-1.22,6.45,6.45,0,0,0-1.55-.83A4.81,4.81,0,0,0,211,16a6,6,0,0,0-2.29.45,5.48,5.48,0,0,0-1.91,1.34,6.65,6.65,0,0,0-1.32,2.2A8.48,8.48,0,0,0,205,23Z" transform="translate(-4.99)"/>
      </g>
      <g class="cls-3">
        <path class="cls-4" d="M168,48.12a6.62,6.62,0,0,0-.31-.88,3.67,3.67,0,0,0-.52-.82,2.68,2.68,0,0,0-.74-.6,2.08,2.08,0,0,0-1-.24,2.83,2.83,0,0,0-2.36,1.1,3.6,3.6,0,0,0-.65,1.21,4.71,4.71,0,0,0-.23,1.47,7,7,0,0,0,.25,2,5.39,5.39,0,0,0,.76,1.68,4,4,0,0,0,1.19,1.15,3.15,3.15,0,0,0,1.58.44,3.25,3.25,0,0,0,1.34-.23,3.12,3.12,0,0,0,1-.64,4.36,4.36,0,0,0,.73-1,11.12,11.12,0,0,0,.56-1.15l.65.28a7.2,7.2,0,0,1-.78,1.85,5.41,5.41,0,0,1-1.14,1.39,4.74,4.74,0,0,1-1.46.85,5.24,5.24,0,0,1-3.79-.18,5.31,5.31,0,0,1-1.64-1.2,5.53,5.53,0,0,1-1.09-1.77,5.46,5.46,0,0,1-.39-2.14,6.21,6.21,0,0,1,.23-1.62,6.09,6.09,0,0,1,.6-1.44,6,6,0,0,1,.91-1.22,5.9,5.9,0,0,1,1.18-.93,5.59,5.59,0,0,1,1.37-.6,5.64,5.64,0,0,1,2.79,0,5,5,0,0,1,1.11.45,3.59,3.59,0,0,1,.89.69,3,3,0,0,1,.6.92Z" transform="translate(-4.99)"/>
        <path class="cls-4" d="M180.16,56.28a2.25,2.25,0,0,1-.72-.62,1.47,1.47,0,0,1-.28-.91c-.27.19-.52.39-.78.59a5.07,5.07,0,0,1-.81.56,4.5,4.5,0,0,1-1,.41,4.71,4.71,0,0,1-1.25.15,3.13,3.13,0,0,1-1.17-.23,2.49,2.49,0,0,1-1.43-1.48,3.07,3.07,0,0,1-.19-1.1,3,3,0,0,1,.3-1.29,3.5,3.5,0,0,1,.79-1,6.13,6.13,0,0,1,1.15-.79,11.15,11.15,0,0,1,1.4-.61,14.91,14.91,0,0,1,1.52-.47l1.52-.39v-.69a7.8,7.8,0,0,0-.09-1.29,2.24,2.24,0,0,0-.33-.84,1.29,1.29,0,0,0-.57-.47,2.3,2.3,0,0,0-.84-.14,1.89,1.89,0,0,0-.86.17,2.38,2.38,0,0,0-.69.48,2.7,2.7,0,0,0-.5.73,2.89,2.89,0,0,0-.26.88l-2,0a2.84,2.84,0,0,1,.51-1.27,3.48,3.48,0,0,1,1-.94A5,5,0,0,1,176,45.1a6.27,6.27,0,0,1,1.63-.19,6.64,6.64,0,0,1,1.82.24,3.14,3.14,0,0,1,1.17.6,2.13,2.13,0,0,1,.62.94,3.64,3.64,0,0,1,.17,1.22l-.09,6.86a1.52,1.52,0,0,0,.29.91,2.16,2.16,0,0,0,.72.63Zm-.94-6.49c-.32.1-.65.21-1,.34a9.63,9.63,0,0,0-1,.42,9.44,9.44,0,0,0-.94.52,4.43,4.43,0,0,0-.79.6,3.31,3.31,0,0,0-.54.67,1.56,1.56,0,0,0-.2.75,2,2,0,0,0,.14.78,2.29,2.29,0,0,0,.39.64,2,2,0,0,0,.57.45,1.47,1.47,0,0,0,.67.16,2.38,2.38,0,0,0,.71-.08,4,4,0,0,0,.65-.26,7,7,0,0,0,.63-.38l.65-.46Z" transform="translate(-4.99)"/>
        <path class="cls-4" d="M188.26,55.85a2.43,2.43,0,0,0,.82-.12,2.08,2.08,0,0,0,.66-.36,1.67,1.67,0,0,0,.44-.52,1.5,1.5,0,0,0,.16-.61,1.6,1.6,0,0,0-.25-.9,2.49,2.49,0,0,0-.66-.68,5.31,5.31,0,0,0-.94-.56l-1.07-.53c-.37-.19-.73-.38-1.08-.58a5.2,5.2,0,0,1-.94-.72,3.41,3.41,0,0,1-.66-.93,3,3,0,0,1-.24-1.24,2.86,2.86,0,0,1,.3-1.23,3,3,0,0,1,.8-1,3.81,3.81,0,0,1,1.2-.63,4.66,4.66,0,0,1,1.52-.21,5.56,5.56,0,0,1,1,.09,3.48,3.48,0,0,1,.93.3,4,4,0,0,1,.91.64,8.82,8.82,0,0,1,.95,1.07l-.82.72a4.7,4.7,0,0,0-1.38-1.55,3,3,0,0,0-1.65-.53,3,3,0,0,0-.87.1,2.18,2.18,0,0,0-.67.31,1.64,1.64,0,0,0-.44.47,1.14,1.14,0,0,0-.16.57,1.39,1.39,0,0,0,.27.87,2.77,2.77,0,0,0,.72.68,7,7,0,0,0,1,.56l1.18.53c.4.18.79.37,1.17.58a6,6,0,0,1,1,.71,3.38,3.38,0,0,1,.71.93,2.52,2.52,0,0,1,.26,1.22,3.25,3.25,0,0,1-.27,1.32,2.83,2.83,0,0,1-.8,1,3.91,3.91,0,0,1-1.33.7,6.13,6.13,0,0,1-1.86.24,8.64,8.64,0,0,1-1-.09,4.08,4.08,0,0,1-1-.32,4.53,4.53,0,0,1-1-.63,5.81,5.81,0,0,1-1-1.07l.91-.81a9.91,9.91,0,0,0,.76,1,5,5,0,0,0,.74.66,3,3,0,0,0,.79.38A3.07,3.07,0,0,0,188.26,55.85Z" transform="translate(-4.99)"/>
        <path class="cls-4" d="M198,45.38l-.11,7.93a1.78,1.78,0,0,0,.18.78,2.16,2.16,0,0,0,.52.65,2.76,2.76,0,0,0,.77.44,2.85,2.85,0,0,0,.94.17,2,2,0,0,0,.7-.13,3.72,3.72,0,0,0,1.41-.95,4.31,4.31,0,0,0,.54-.69l.1-8.13,2.19,0-.15,11.12-2.18,0,0-2.09a4.07,4.07,0,0,1-.74.89,5.58,5.58,0,0,1-.95.73,5.93,5.93,0,0,1-1.06.49,3.45,3.45,0,0,1-3.5-.88,3.49,3.49,0,0,1-.74-1.1,3.59,3.59,0,0,1-.26-1.34l.11-7.93Z" transform="translate(-4.99)"/>
        <path class="cls-4" d="M215.85,56.75a2.1,2.1,0,0,1-.73-.63,1.47,1.47,0,0,1-.28-.91c-.26.19-.52.39-.77.6a5.92,5.92,0,0,1-.82.56,4.8,4.8,0,0,1-1,.41,4.28,4.28,0,0,1-1.24.14,3,3,0,0,1-1.18-.23,2.57,2.57,0,0,1-.88-.59,2.68,2.68,0,0,1-.55-.89,2.86,2.86,0,0,1-.18-1.1,2.79,2.79,0,0,1,.3-1.29,3.3,3.3,0,0,1,.78-1,5.77,5.77,0,0,1,1.16-.79,11,11,0,0,1,1.39-.61c.49-.18,1-.34,1.52-.48l1.52-.38v-.7a6.05,6.05,0,0,0-.09-1.28,2.29,2.29,0,0,0-.33-.85,1.22,1.22,0,0,0-.57-.46,2.52,2.52,0,0,0-.84-.15,2,2,0,0,0-.85.18,2.42,2.42,0,0,0-.7.48,2.78,2.78,0,0,0-.49.72,3.29,3.29,0,0,0-.27.89l-2,0a2.67,2.67,0,0,1,.51-1.28,3.54,3.54,0,0,1,1-.93,4.92,4.92,0,0,1,1.41-.58,6.32,6.32,0,0,1,1.63-.18,6.67,6.67,0,0,1,1.82.23,3.07,3.07,0,0,1,1.17.61,2.13,2.13,0,0,1,.62.94,3.84,3.84,0,0,1,.18,1.21l-.09,6.87a1.47,1.47,0,0,0,.28.91,2,2,0,0,0,.73.62Zm-.95-6.49q-.48.14-1,.33c-.34.13-.67.27-1,.43s-.64.33-.94.51a5.52,5.52,0,0,0-.78.6,2.61,2.61,0,0,0-.54.68,1.57,1.57,0,0,0-.21.75,2.29,2.29,0,0,0,.14.78,2.23,2.23,0,0,0,.4.64,1.68,1.68,0,0,0,.56.44,1.48,1.48,0,0,0,.67.17,2.76,2.76,0,0,0,.71-.09,3.27,3.27,0,0,0,.65-.26,6.88,6.88,0,0,0,.63-.37l.65-.46Z" transform="translate(-4.99)"/>
        <path class="cls-4" d="M222.81,56.84l-2.21,0,.21-16.17,1.58-.61H223Z" transform="translate(-4.99)"/>
      </g>
      <path class="cls-4" d="M226.23,55.4a1.46,1.46,0,0,1,1.48-1.56,1.56,1.56,0,1,1-1.48,1.56Z" transform="translate(-4.99)"/>
    </g>
  </g>
</svg>
