<svg xmlns="http://www.w3.org/2000/svg" width="66.45" height="22.25" viewBox="0 0 66.45 22.25">
  <defs>
    <style>
      .cls-1, .cls-3 {
        isolation: isolate;
      }

      .cls-2 {
        fill: #666;
      }

      .cls-3 {
        fill: #104547;
        opacity: 0.95;
      }
    </style>
  </defs>
  <g id="Layer_2" data-name="Layer 2">
    <g id="Layer_1-2" data-name="Layer 1">
      <g>
        <g class="cls-1">
          <path class="cls-2" d="M1.07,2.17H2.4L7.25,7.6V2.17h1.3v8.66h-.9l-5.26-6v5.87H1.07Z" transform="translate(-1.07 -1.96)"/>
          <path class="cls-2" d="M16.18,10.89a5.53,5.53,0,0,1-1.92-.33,4.7,4.7,0,0,1-1.54-.93,4.45,4.45,0,0,1-1-1.43,4.36,4.36,0,0,1-.38-1.82A4.21,4.21,0,0,1,11.7,4.6a4.14,4.14,0,0,1,1-1.38,4.63,4.63,0,0,1,1.54-.9A5.53,5.53,0,0,1,16.18,2a5.45,5.45,0,0,1,1.92.32,5,5,0,0,1,1.54.9,4.23,4.23,0,0,1,1,1.38,4.12,4.12,0,0,1,.38,1.76,4.77,4.77,0,0,1-.17,1.28,4.6,4.6,0,0,1-.48,1.11,4.32,4.32,0,0,1-.76.9,4.47,4.47,0,0,1-1,.67,4.94,4.94,0,0,1-1.17.43A6.12,6.12,0,0,1,16.18,10.89Zm0-.71a2.1,2.1,0,0,0,1.1-.29,2.41,2.41,0,0,0,.8-.79,4,4,0,0,0,.48-1.2,6.55,6.55,0,0,0,.17-1.52,6.2,6.2,0,0,0-.17-1.48,3.71,3.71,0,0,0-.48-1.16,2.41,2.41,0,0,0-.8-.76,2.38,2.38,0,0,0-2.2,0,2.41,2.41,0,0,0-.8.76A3.71,3.71,0,0,0,13.8,4.9a6.22,6.22,0,0,0-.16,1.48A6.57,6.57,0,0,0,13.8,7.9a4,4,0,0,0,.48,1.2,2.41,2.41,0,0,0,.8.79A2.1,2.1,0,0,0,16.18,10.18Z" transform="translate(-1.07 -1.96)"/>
          <path class="cls-2" d="M23.81,2.17H27a5.58,5.58,0,0,1,1.44.17,3.08,3.08,0,0,1,1,.49,2.08,2.08,0,0,1,.62.74,2.18,2.18,0,0,1,.2.93,1.64,1.64,0,0,1-.14.69,2.06,2.06,0,0,1-.39.6,2.76,2.76,0,0,1-.62.48,3.78,3.78,0,0,1-.79.35l3,4.09H29.12L26.27,6.85H25.9v3.86H23.81ZM25.9,6.1h.45A2.35,2.35,0,0,0,27.06,6a1.77,1.77,0,0,0,.56-.3A1.48,1.48,0,0,0,28,5.2a1.53,1.53,0,0,0,.14-.66A1.8,1.8,0,0,0,28,3.92a1.39,1.39,0,0,0-.28-.49,1.25,1.25,0,0,0-.44-.31A1.31,1.31,0,0,0,26.74,3H25.9Z" transform="translate(-1.07 -1.96)"/>
          <path class="cls-2" d="M33.07,2.17h3.08a7.91,7.91,0,0,1,2.19.28,5.18,5.18,0,0,1,1.72.82,3.72,3.72,0,0,1,1.12,1.31,4,4,0,0,1,.4,1.78,4.32,4.32,0,0,1-.34,1.69,4,4,0,0,1-1,1.38,4.62,4.62,0,0,1-1.59.94,6.63,6.63,0,0,1-2.17.34H33.07Zm2.09,7.66h1.11a3,3,0,0,0,1.15-.23,2.62,2.62,0,0,0,.95-.66A3.19,3.19,0,0,0,39,7.85a4.36,4.36,0,0,0,.23-1.47A3.83,3.83,0,0,0,39,5.05,3.37,3.37,0,0,0,38.41,4a2.83,2.83,0,0,0-2.14-1H35.16Z" transform="translate(-1.07 -1.96)"/>
          <path class="cls-2" d="M44.36,2.17h2.08v8.54H44.36Z" transform="translate(-1.07 -1.96)"/>
          <path class="cls-2" d="M51.58,6.43a3.94,3.94,0,0,0,.25,1.47A3.15,3.15,0,0,0,52.5,9a2.71,2.71,0,0,0,1,.66,2.87,2.87,0,0,0,1.12.22,2.27,2.27,0,0,0,.83-.15,2.61,2.61,0,0,0,.72-.42,4,4,0,0,0,.63-.61,8.36,8.36,0,0,0,.57-.73l.87.64a6.11,6.11,0,0,1-.68.88,5.37,5.37,0,0,1-.9.74,4.79,4.79,0,0,1-1.07.51,3.88,3.88,0,0,1-1.24.19,6,6,0,0,1-2-.32,4.72,4.72,0,0,1-1.6-.9,4.17,4.17,0,0,1-1-1.41,4.37,4.37,0,0,1-.38-1.83,4.37,4.37,0,0,1,.36-1.79,4.07,4.07,0,0,1,1-1.41,4.69,4.69,0,0,1,1.56-.93,5.79,5.79,0,0,1,2-.34,4.67,4.67,0,0,1,1.34.18,4,4,0,0,1,1.11.48,4.13,4.13,0,0,1,.89.72,5.83,5.83,0,0,1,.69.94l-.87.62a7,7,0,0,0-.59-.73,5.24,5.24,0,0,0-.67-.59,3.29,3.29,0,0,0-.76-.41A2.48,2.48,0,0,0,54.5,3a2.78,2.78,0,0,0-1.11.22,2.57,2.57,0,0,0-.93.65A3.14,3.14,0,0,0,51.82,5,4.1,4.1,0,0,0,51.58,6.43Z" transform="translate(-1.07 -1.96)"/>
        </g>
        <g class="cls-1">
          <path class="cls-2" d="M37.81,19.94a3.12,3.12,0,0,0-.15-.43,1.8,1.8,0,0,0-.25-.4,1.28,1.28,0,0,0-.37-.29,1,1,0,0,0-.49-.12,1.38,1.38,0,0,0-.65.14,1.61,1.61,0,0,0-.5.39,2,2,0,0,0-.31.59,2.41,2.41,0,0,0-.11.72,3.18,3.18,0,0,0,.12,1,2.65,2.65,0,0,0,.36.82,2,2,0,0,0,.59.56,1.6,1.6,0,0,0,.76.21,1.9,1.9,0,0,0,.66-.11,1.55,1.55,0,0,0,.48-.32,2.07,2.07,0,0,0,.35-.46,4.15,4.15,0,0,0,.27-.56l.32.14a3.34,3.34,0,0,1-.38.9,2.44,2.44,0,0,1-.55.67,2.22,2.22,0,0,1-.71.42,2.37,2.37,0,0,1-.85.13,2.32,2.32,0,0,1-1-.22,2.46,2.46,0,0,1-.8-.58,3,3,0,0,1-.53-.86,2.78,2.78,0,0,1-.19-1,3.42,3.42,0,0,1,.11-.79,3.33,3.33,0,0,1,.29-.7,3.68,3.68,0,0,1,.45-.59,2.46,2.46,0,0,1,.57-.45A2.35,2.35,0,0,1,36,18.4a2.59,2.59,0,0,1,.74-.1,2.43,2.43,0,0,1,.61.08,2.65,2.65,0,0,1,.54.22,1.44,1.44,0,0,1,.43.34,1.25,1.25,0,0,1,.29.44Z" transform="translate(-1.07 -1.96)"/>
          <path class="cls-2" d="M43.74,23.9a.92.92,0,0,1-.35-.3.71.71,0,0,1-.14-.45l-.38.3a2.7,2.7,0,0,1-.39.27,3.45,3.45,0,0,1-.48.2,2.25,2.25,0,0,1-.6.07,1.7,1.7,0,0,1-.57-.11,1.24,1.24,0,0,1-.7-.72,1.61,1.61,0,0,1-.09-.54,1.26,1.26,0,0,1,.15-.62,1.66,1.66,0,0,1,.38-.5,2.89,2.89,0,0,1,.56-.38,5.35,5.35,0,0,1,.68-.3c.23-.09.48-.16.73-.23l.74-.19v-.33a2.87,2.87,0,0,0,0-.63,1,1,0,0,0-.16-.41.58.58,0,0,0-.27-.22,1.24,1.24,0,0,0-.41-.08,1,1,0,0,0-.42.09,1.09,1.09,0,0,0-.33.23,1.48,1.48,0,0,0-.25.35,1.62,1.62,0,0,0-.12.43h-1a1.34,1.34,0,0,1,.24-.62,1.84,1.84,0,0,1,.51-.45,2.17,2.17,0,0,1,.68-.28,2.66,2.66,0,0,1,.8-.09,3.15,3.15,0,0,1,.88.11,1.4,1.4,0,0,1,.57.3,1,1,0,0,1,.3.45,1.62,1.62,0,0,1,.08.59l0,3.34a.68.68,0,0,0,.14.44.92.92,0,0,0,.35.3Zm-.46-3.15a4.5,4.5,0,0,0-.48.16,4.25,4.25,0,0,0-.49.21,3.25,3.25,0,0,0-.45.25,2,2,0,0,0-.39.29,1.35,1.35,0,0,0-.26.33.75.75,0,0,0-.1.36,1,1,0,0,0,.07.38,1.08,1.08,0,0,0,.19.31.85.85,0,0,0,.28.22.72.72,0,0,0,.32.08,1.22,1.22,0,0,0,.34,0,1.79,1.79,0,0,0,.32-.13,2.48,2.48,0,0,0,.31-.18l.31-.23Z" transform="translate(-1.07 -1.96)"/>
          <path class="cls-2" d="M47.67,23.69a1,1,0,0,0,.4-.06,1.09,1.09,0,0,0,.32-.17.82.82,0,0,0,.21-.25.67.67,0,0,0,.08-.3.81.81,0,0,0-.12-.44,1.42,1.42,0,0,0-.32-.33,2.53,2.53,0,0,0-.46-.27l-.52-.26-.52-.28a2.32,2.32,0,0,1-.46-.35,1.6,1.6,0,0,1-.32-.45,1.5,1.5,0,0,1,0-1.2,1.38,1.38,0,0,1,.39-.48,1.77,1.77,0,0,1,.58-.3,2.5,2.5,0,0,1,.74-.11,3.68,3.68,0,0,1,.5,0,1.49,1.49,0,0,1,.45.15,1.54,1.54,0,0,1,.44.31,3.58,3.58,0,0,1,.47.52l-.4.35a2.32,2.32,0,0,0-.68-.76,1.43,1.43,0,0,0-.79-.26,1.88,1.88,0,0,0-.43.05,1.35,1.35,0,0,0-.32.15.76.76,0,0,0-.21.23.48.48,0,0,0-.08.28.67.67,0,0,0,.12.42,1.59,1.59,0,0,0,.35.33,3.38,3.38,0,0,0,.5.27l.57.26c.2.09.39.18.57.28a2.34,2.34,0,0,1,.5.35,1.52,1.52,0,0,1,.35.45,1.25,1.25,0,0,1,.13.59,1.67,1.67,0,0,1-.14.64,1.3,1.3,0,0,1-.39.52,1.84,1.84,0,0,1-.64.33,3.09,3.09,0,0,1-.91.12,2.8,2.8,0,0,1-.48-.05,1.59,1.59,0,0,1-.5-.15,1.79,1.79,0,0,1-.5-.31,2.47,2.47,0,0,1-.49-.52l.44-.39a4.25,4.25,0,0,0,.37.48,2.59,2.59,0,0,0,.36.32,1.46,1.46,0,0,0,.38.18A1.49,1.49,0,0,0,47.67,23.69Z" transform="translate(-1.07 -1.96)"/>
          <path class="cls-2" d="M52.39,18.61l0,3.85a.73.73,0,0,0,.08.38,1.07,1.07,0,0,0,.25.31,1.28,1.28,0,0,0,.38.21,1.34,1.34,0,0,0,.46.09.9.9,0,0,0,.34-.07,1.51,1.51,0,0,0,.36-.18,2.07,2.07,0,0,0,.32-.28,1.64,1.64,0,0,0,.26-.33l.05-3.95h1.07l-.07,5.41-1.07,0,0-1a2.16,2.16,0,0,1-.37.44,2.66,2.66,0,0,1-.46.35,2.3,2.3,0,0,1-.51.23,1.61,1.61,0,0,1-.5.09,1.86,1.86,0,0,1-.67-.14,1.8,1.8,0,0,1-.53-.37,1.7,1.7,0,0,1-.36-.54,1.57,1.57,0,0,1-.13-.65l.05-3.85Z" transform="translate(-1.07 -1.96)"/>
          <path class="cls-2" d="M61.07,24.13a1,1,0,0,1-.35-.31.74.74,0,0,1-.14-.44l-.37.29a2.8,2.8,0,0,1-.4.27,2.1,2.1,0,0,1-.48.2,1.83,1.83,0,0,1-.6.07,1.48,1.48,0,0,1-.57-.11,1.17,1.17,0,0,1-.43-.29,1.24,1.24,0,0,1-.26-.43,1.16,1.16,0,0,1-.09-.53,1.46,1.46,0,0,1,.14-.63,1.62,1.62,0,0,1,.38-.49,2.93,2.93,0,0,1,.56-.39,5.15,5.15,0,0,1,.68-.29,6.34,6.34,0,0,1,.74-.23l.74-.19v-.34a2.89,2.89,0,0,0,0-.62,1,1,0,0,0-.16-.41.58.58,0,0,0-.28-.23,1.19,1.19,0,0,0-.4-.07,1.12,1.12,0,0,0-.42.08,1.16,1.16,0,0,0-.34.24,1.21,1.21,0,0,0-.24.35,1.64,1.64,0,0,0-.13.43h-1a1.31,1.31,0,0,1,.25-.62,1.7,1.7,0,0,1,.5-.46,2.85,2.85,0,0,1,.69-.28,3.42,3.42,0,0,1,.79-.09,3.46,3.46,0,0,1,.88.12,1.52,1.52,0,0,1,.57.29.93.93,0,0,1,.3.46,1.83,1.83,0,0,1,.09.59l0,3.34a.65.65,0,0,0,.14.44.92.92,0,0,0,.35.3ZM60.61,21l-.48.17-.48.2-.46.25a2.92,2.92,0,0,0-.38.29,1.5,1.5,0,0,0-.26.33.71.71,0,0,0-.1.37,1,1,0,0,0,.07.38,1,1,0,0,0,.19.31.9.9,0,0,0,.27.21.67.67,0,0,0,.33.08,1,1,0,0,0,.34,0A2.08,2.08,0,0,0,60,23.4l.31-.19.31-.22Z" transform="translate(-1.07 -1.96)"/>
          <path class="cls-2" d="M64.46,24.17H63.38l.1-7.86.77-.3h.31Z" transform="translate(-1.07 -1.96)"/>
        </g>
        <path class="cls-3" d="M66.09,23a.71.71,0,0,1,.72-.76.76.76,0,1,1-.72.76Z" transform="translate(-1.07 -1.96)"/>
      </g>
    </g>
  </g>
</svg>
