<svg xmlns="http://www.w3.org/2000/svg" width="106.51" height="32.14" viewBox="0 0 106.51 32.14">
  <defs>
    <style>
      .cls-1 {
        fill: #666;
      }

      .cls-2 {
        fill: #104547;
        opacity: 0.95;
      }

      .cls-2, .cls-3 {
        isolation: isolate;
      }
    </style>
  </defs>
  <g id="Layer_2" data-name="Layer 2">
    <g id="Layer_1-2" data-name="Layer 1">
      <g>
        <path class="cls-1" d="M24.44,15.23l-7.36-.09c2.44.73,4.85,1.25,7.36.09" transform="translate(-6.49)"/>
        <path class="cls-1" d="M24.56,17.49c-2.51,1.16-4.92.64-7.36-.09L7,17.27l10.22.13c-2.53-.76-5.1-1.74-7.86-1.31a13.9,13.9,0,0,0-2.72,1c-.11,8.19,7.83,14.93,17.73,15" transform="translate(-6.49)"/>
        <path class="cls-1" d="M24.65.19C14.74.06,6.61,6.61,6.49,14.8h0a14.22,14.22,0,0,1,2.73-1c2.76-.43,5.33.55,7.86,1.31l7.36.09" transform="translate(-6.49)"/>
        <path id="Path_7" data-name="Path 7" class="cls-2" d="M26.18,0C36.26,0,44.43,7.2,44.43,16.07h0c0,8.88-8.17,16.07-18.25,16.07" transform="translate(-6.49)"/>
        <path class="cls-1" d="M24.44,15.23l-7.36-.09c2.44.73,4.85,1.25,7.36.09" transform="translate(-6.49)"/>
        <path class="cls-1" d="M24.56,17.49c-2.51,1.16-4.92.64-7.36-.09L7,17.27l10.22.13c-2.53-.76-5.1-1.74-7.86-1.31a13.9,13.9,0,0,0-2.72,1c-.11,8.19,7.83,14.93,17.73,15" transform="translate(-6.49)"/>
        <path class="cls-1" d="M24.65.19C14.74.06,6.61,6.61,6.49,14.8h0a14.22,14.22,0,0,1,2.73-1c2.76-.43,5.33.55,7.86,1.31l7.36.09" transform="translate(-6.49)"/>
        <g class="cls-3">
          <path class="cls-1" d="M47.85,5.91h1.34L54,11.33V5.91h1.3v8.66h-.9l-5.26-6v5.86H47.85Z" transform="translate(-6.49)"/>
          <path class="cls-1" d="M63,14.63a5.53,5.53,0,0,1-1.92-.33,4.9,4.9,0,0,1-1.54-.94,4.4,4.4,0,0,1-1.4-3.24A4.22,4.22,0,0,1,59.51,7a5,5,0,0,1,1.54-.9A5.77,5.77,0,0,1,63,5.73a5.69,5.69,0,0,1,1.92.32A4.83,4.83,0,0,1,66.43,7a4,4,0,0,1,1,1.38,4.09,4.09,0,0,1,.38,1.76,4.83,4.83,0,0,1-.17,1.28,4.39,4.39,0,0,1-.49,1.1,3.82,3.82,0,0,1-.75.9,4.51,4.51,0,0,1-1,.68,5.41,5.41,0,0,1-1.17.42A5.6,5.6,0,0,1,63,14.63Zm0-.72a2.09,2.09,0,0,0,1.1-.28,2.48,2.48,0,0,0,.79-.79,3.83,3.83,0,0,0,.49-1.2,6.61,6.61,0,0,0,.17-1.52,6.29,6.29,0,0,0-.17-1.49,3.59,3.59,0,0,0-.49-1.16,2.26,2.26,0,0,0-.79-.75,2.38,2.38,0,0,0-2.2,0,2.38,2.38,0,0,0-.8.75,3.82,3.82,0,0,0-.48,1.16,6.3,6.3,0,0,0-.16,1.49,6.63,6.63,0,0,0,.16,1.52,4.07,4.07,0,0,0,.48,1.2,2.62,2.62,0,0,0,.8.79A2.09,2.09,0,0,0,63,13.91Z" transform="translate(-6.49)"/>
          <path class="cls-1" d="M70.6,5.91h3.19a5.6,5.6,0,0,1,1.45.17,3.39,3.39,0,0,1,1,.48,2.17,2.17,0,0,1,.62.74,2.26,2.26,0,0,1,.2.94,1.81,1.81,0,0,1-.14.69,2,2,0,0,1-.39.59,2.53,2.53,0,0,1-.62.49,4.39,4.39,0,0,1-.79.35l3,4.08H75.91l-2.86-3.86h-.37v3.86H70.6Zm2.08,3.92h.46a2.24,2.24,0,0,0,.7-.1,1.74,1.74,0,0,0,.57-.31,1.3,1.3,0,0,0,.37-.49,1.51,1.51,0,0,0,.14-.65,1.71,1.71,0,0,0-.11-.62,1.46,1.46,0,0,0-.28-.49,1.28,1.28,0,0,0-.44-.32,1.47,1.47,0,0,0-.56-.11h-.85Z" transform="translate(-6.49)"/>
          <path class="cls-1" d="M79.86,5.91h3.08a7.91,7.91,0,0,1,2.19.28A5.17,5.17,0,0,1,86.85,7,3.84,3.84,0,0,1,88,8.32a3.92,3.92,0,0,1,.4,1.78A4.36,4.36,0,0,1,88,11.79a4.18,4.18,0,0,1-1,1.38,4.72,4.72,0,0,1-1.6.93,6.3,6.3,0,0,1-2.17.34H79.86ZM82,13.57h1.11a3,3,0,0,0,1.15-.23,2.61,2.61,0,0,0,1-.67,3,3,0,0,0,.64-1.08A4.2,4.2,0,0,0,86,10.12a3.83,3.83,0,0,0-.22-1.33,3.26,3.26,0,0,0-.62-1.06,2.74,2.74,0,0,0-2.14-1H82Z" transform="translate(-6.49)"/>
          <path class="cls-1" d="M91.15,5.91h2.08v8.53H91.15Z" transform="translate(-6.49)"/>
          <path class="cls-1" d="M98.37,10.17a3.89,3.89,0,0,0,.25,1.46,3.35,3.35,0,0,0,.66,1.07,2.68,2.68,0,0,0,1,.65,2.88,2.88,0,0,0,1.12.23,2.08,2.08,0,0,0,.83-.16,2.85,2.85,0,0,0,.72-.41,5.15,5.15,0,0,0,.63-.61c.2-.24.39-.48.57-.73l.87.64a6,6,0,0,1-.68.87,5.43,5.43,0,0,1-.9.75,5,5,0,0,1-1.07.51,3.92,3.92,0,0,1-1.24.19,6.2,6.2,0,0,1-2-.32,4.91,4.91,0,0,1-1.6-.91,4.19,4.19,0,0,1-1.42-3.23,4.45,4.45,0,0,1,.36-1.8,4.27,4.27,0,0,1,1-1.41A4.76,4.76,0,0,1,99,6a5.79,5.79,0,0,1,2-.33,5.06,5.06,0,0,1,1.34.17,4.65,4.65,0,0,1,1.11.48,4.18,4.18,0,0,1,.89.73A5.75,5.75,0,0,1,105,8l-.88.62a7.94,7.94,0,0,0-.58-.72,4.24,4.24,0,0,0-.68-.6,3,3,0,0,0-.75-.4,2.29,2.29,0,0,0-.82-.15,3,3,0,0,0-1.11.22,2.55,2.55,0,0,0-.93.66,3.1,3.1,0,0,0-.64,1.06A4.16,4.16,0,0,0,98.37,10.17Z" transform="translate(-6.49)"/>
        </g>
        <g class="cls-3">
          <path class="cls-1" d="M82.29,23.81a4.43,4.43,0,0,0-.15-.43,2.06,2.06,0,0,0-.25-.4,1.48,1.48,0,0,0-.36-.29,1.27,1.27,0,0,0-.5-.12,1.51,1.51,0,0,0-.65.14,1.46,1.46,0,0,0-.49.4,1.86,1.86,0,0,0-.32.59,2.35,2.35,0,0,0-.11.71,3.1,3.1,0,0,0,.12,1,2.8,2.8,0,0,0,.37.82,1.93,1.93,0,0,0,.58.56,1.44,1.44,0,0,0,.77.21,1.48,1.48,0,0,0,.65-.11,1.52,1.52,0,0,0,.48-.31,2,2,0,0,0,.36-.46,5.77,5.77,0,0,0,.27-.56l.32.13a4.44,4.44,0,0,1-.38.91,2.85,2.85,0,0,1-.56.67,2.1,2.1,0,0,1-.71.41,2.33,2.33,0,0,1-.85.14A2.53,2.53,0,0,1,79.09,27a2.77,2.77,0,0,1-.53-.86,2.56,2.56,0,0,1-.18-1,2.88,2.88,0,0,1,.11-.78,2.72,2.72,0,0,1,.29-.7,2.59,2.59,0,0,1,.44-.59,2.8,2.8,0,0,1,.57-.46,3.08,3.08,0,0,1,.67-.29,2.31,2.31,0,0,1,.74-.09,2.49,2.49,0,0,1,1.16.29,2.38,2.38,0,0,1,.43.34,1.65,1.65,0,0,1,.29.45Z" transform="translate(-6.49)"/>
          <path class="cls-1" d="M88.22,27.78a1,1,0,0,1-.35-.31.74.74,0,0,1-.14-.44c-.13.09-.25.19-.37.29a3.51,3.51,0,0,1-.4.27,2.1,2.1,0,0,1-.48.2,2.15,2.15,0,0,1-.6.07,1.48,1.48,0,0,1-.57-.11,1.3,1.3,0,0,1-.43-.29,1.43,1.43,0,0,1-.27-.43,1.51,1.51,0,0,1-.09-.53,1.58,1.58,0,0,1,.15-.63,1.51,1.51,0,0,1,.38-.49,2.54,2.54,0,0,1,.56-.39,6.06,6.06,0,0,1,.68-.3c.24-.08.48-.16.74-.23l.74-.18v-.34a3.64,3.64,0,0,0,0-.62,1.21,1.21,0,0,0-.16-.41.62.62,0,0,0-.28-.23,1.21,1.21,0,0,0-.41-.07,1.07,1.07,0,0,0-.41.08,1.16,1.16,0,0,0-.34.24,1.21,1.21,0,0,0-.24.35,1.53,1.53,0,0,0-.13.43h-1a1.22,1.22,0,0,1,.25-.62,1.57,1.57,0,0,1,.5-.46,2.69,2.69,0,0,1,.69-.28,3.42,3.42,0,0,1,.79-.09,3.12,3.12,0,0,1,.88.12,1.52,1.52,0,0,1,.57.29,1.08,1.08,0,0,1,.3.46,1.83,1.83,0,0,1,.09.59l0,3.33a.77.77,0,0,0,.14.45,1,1,0,0,0,.35.3Zm-.46-3.16-.48.16c-.16.07-.33.13-.49.21s-.31.16-.45.25a2.37,2.37,0,0,0-.38.29,2,2,0,0,0-.27.33.81.81,0,0,0-.09.37.9.9,0,0,0,.06.37,1.13,1.13,0,0,0,.19.32.94.94,0,0,0,.28.21.76.76,0,0,0,.33.08,1,1,0,0,0,.34,0,2.08,2.08,0,0,0,.32-.12l.3-.19.32-.22Z" transform="translate(-6.49)"/>
          <path class="cls-1" d="M92.15,27.57a1.25,1.25,0,0,0,.4-.06,1,1,0,0,0,.32-.18.88.88,0,0,0,.22-.25.63.63,0,0,0,.07-.3.64.64,0,0,0-.12-.43,1.14,1.14,0,0,0-.32-.34,4.45,4.45,0,0,0-.45-.27l-.53-.26c-.17-.08-.35-.18-.52-.28a2.22,2.22,0,0,1-.45-.34,1.62,1.62,0,0,1-.33-.46,1.5,1.5,0,0,1,0-1.2,1.61,1.61,0,0,1,.39-.47,2.06,2.06,0,0,1,.59-.31,2.43,2.43,0,0,1,.73-.1,3.75,3.75,0,0,1,.5,0,1.9,1.9,0,0,1,.46.15,2.23,2.23,0,0,1,.44.31,4.21,4.21,0,0,1,.46.52l-.4.35a2.3,2.3,0,0,0-.67-.76,1.48,1.48,0,0,0-.8-.25,1.34,1.34,0,0,0-.42.05.84.84,0,0,0-.33.15.73.73,0,0,0-.21.22.57.57,0,0,0-.08.28.71.71,0,0,0,.13.43,1.39,1.39,0,0,0,.35.33,3.3,3.3,0,0,0,.5.27l.57.26c.19.08.38.18.57.28a2.93,2.93,0,0,1,.5.34,1.53,1.53,0,0,1,.34.46,1.22,1.22,0,0,1,.13.59,1.7,1.7,0,0,1-.13.64,1.39,1.39,0,0,1-.39.51,1.74,1.74,0,0,1-.65.34,2.71,2.71,0,0,1-.9.11,2.77,2.77,0,0,1-.49,0,2.57,2.57,0,0,1-.5-.15,2.72,2.72,0,0,1-.5-.31,3.08,3.08,0,0,1-.49-.52l.44-.39A5.16,5.16,0,0,0,91,27a2.07,2.07,0,0,0,.36.32,1.28,1.28,0,0,0,.39.19A1.42,1.42,0,0,0,92.15,27.57Z" transform="translate(-6.49)"/>
          <path class="cls-1" d="M96.87,22.48l-.05,3.85a.85.85,0,0,0,.09.38,1,1,0,0,0,.25.32,1.23,1.23,0,0,0,.37.21,1.39,1.39,0,0,0,.46.08,1.06,1.06,0,0,0,.34-.06,3,3,0,0,0,.36-.18A2.13,2.13,0,0,0,99,26.8a2,2,0,0,0,.25-.34l.06-3.95,1.06,0-.07,5.4H99.26v-1a2.83,2.83,0,0,1-.36.43,3.19,3.19,0,0,1-.47.35,2.38,2.38,0,0,1-.51.24,1.53,1.53,0,0,1-.5.08,1.59,1.59,0,0,1-.66-.14,1.7,1.7,0,0,1-.54-.36,2,2,0,0,1-.36-.54,1.63,1.63,0,0,1-.12-.65l0-3.85Z" transform="translate(-6.49)"/>
          <path class="cls-1" d="M105.56,28a.92.92,0,0,1-.35-.3.65.65,0,0,1-.14-.44l-.38.29a2.33,2.33,0,0,1-.4.27,2.22,2.22,0,0,1-.47.2,2.27,2.27,0,0,1-.61.07,1.59,1.59,0,0,1-.56-.11,1.24,1.24,0,0,1-.7-.72,1.61,1.61,0,0,1-.09-.54,1.38,1.38,0,0,1,.14-.62,1.69,1.69,0,0,1,.39-.5,2.62,2.62,0,0,1,.56-.38,5.89,5.89,0,0,1,.67-.3c.24-.09.49-.16.74-.23l.74-.18v-.34a3.65,3.65,0,0,0,0-.63,1,1,0,0,0-.16-.41.58.58,0,0,0-.27-.22,1,1,0,0,0-.41-.07.85.85,0,0,0-.42.08,1.31,1.31,0,0,0-.34.24,1.35,1.35,0,0,0-.24.35,1.87,1.87,0,0,0-.13.42h-1a1.34,1.34,0,0,1,.24-.62,1.84,1.84,0,0,1,.51-.45,2.17,2.17,0,0,1,.68-.28,2.63,2.63,0,0,1,.79-.09,3.17,3.17,0,0,1,.89.11,1.54,1.54,0,0,1,.57.3,1,1,0,0,1,.3.45,1.62,1.62,0,0,1,.08.59l0,3.34a.68.68,0,0,0,.14.44,1,1,0,0,0,.35.31Zm-.46-3.15-.48.16a4.25,4.25,0,0,0-.49.21l-.46.25a2.24,2.24,0,0,0-.38.29,1.15,1.15,0,0,0-.26.33.65.65,0,0,0-.1.36,1,1,0,0,0,.07.38,1.08,1.08,0,0,0,.19.31.74.74,0,0,0,.28.22.72.72,0,0,0,.32.08,1.27,1.27,0,0,0,.34,0,1.79,1.79,0,0,0,.32-.13,2.48,2.48,0,0,0,.31-.18l.31-.22Z" transform="translate(-6.49)"/>
          <path class="cls-1" d="M108.94,28.05l-1.07,0,.1-7.86.76-.29H109Z" transform="translate(-6.49)"/>
        </g>
        <path class="cls-1" d="M111.57,26.86a.71.71,0,0,1,.72-.75.7.7,0,0,1,.71.75.72.72,0,1,1-1.43,0Z" transform="translate(-6.49)"/>
      </g>
    </g>
  </g>
</svg>
