<svg xmlns="http://www.w3.org/2000/svg" width="89.05" height="75.44" viewBox="0 0 89.05 75.44">
  <defs>
    <style>
      .cls-1 {
        fill: #666;
      }

      .cls-2 {
        fill: #104547;
        opacity: 0.95;
      }

      .cls-2, .cls-3 {
        isolation: isolate;
      }

      .cls-4 {
        fill: #fff;
      }
    </style>
  </defs>
  <g id="Layer_2" data-name="Layer 2">
    <g id="Layer_1-2" data-name="Layer 1">
      <g>
        <path class="cls-1" d="M47.11,35.74l-17.27-.21c5.73,1.71,11.38,2.93,17.27.21" transform="translate(-4.99)"/>
        <path class="cls-1" d="M47.4,41.05c-5.89,2.72-11.54,1.49-17.27-.22l-24-.3,24,.3c-5.94-1.77-12-4.08-18.46-3.07a33.28,33.28,0,0,0-6.39,2.31C5,59.29,23.66,75.09,46.91,75.39" transform="translate(-4.99)"/>
        <path class="cls-1" d="M47.61.44C24.35.15,5.27,15.5,5,34.73H5v0a33.86,33.86,0,0,1,6.4-2.32c6.48-1,12.51,1.3,18.45,3.08l17.27.21" transform="translate(-4.99)"/>
        <path id="Path_7" data-name="Path 7" class="cls-2" d="M51.21,0C74.86,0,94,16.89,94,37.72h0c0,20.83-19.18,37.72-42.83,37.72" transform="translate(-4.99)"/>
        <path class="cls-1" d="M47.11,35.74l-17.27-.21c5.73,1.71,11.38,2.93,17.27.21" transform="translate(-4.99)"/>
        <path class="cls-1" d="M47.4,41.05c-5.89,2.72-11.54,1.49-17.27-.22l-24-.3,24,.3c-5.94-1.77-12-4.08-18.46-3.07a33.28,33.28,0,0,0-6.39,2.31C5,59.29,23.66,75.09,46.91,75.39" transform="translate(-4.99)"/>
        <path class="cls-1" d="M47.61.44C24.35.15,5.27,15.5,5,34.73H5v0a33.86,33.86,0,0,1,6.4-2.32c6.48-1,12.51,1.3,18.45,3.08l17.27.21" transform="translate(-4.99)"/>
        <g class="cls-3">
          <path class="cls-4" d="M14.85,19.91h1.34L21,25.33V19.91h1.3v8.66h-.9l-5.26-6v5.86H14.85Z" transform="translate(-4.99)"/>
          <path class="cls-4" d="M30,28.63a5.53,5.53,0,0,1-1.92-.33,4.9,4.9,0,0,1-1.54-.94,4.4,4.4,0,0,1-1.4-3.24A4.22,4.22,0,0,1,26.51,21a5,5,0,0,1,1.54-.9A5.77,5.77,0,0,1,30,19.73a5.69,5.69,0,0,1,1.92.32,4.83,4.83,0,0,1,1.54.91,4,4,0,0,1,1,1.38,4.09,4.09,0,0,1,.38,1.76,4.83,4.83,0,0,1-.17,1.28,4.39,4.39,0,0,1-.49,1.1,3.82,3.82,0,0,1-.75.9,4.51,4.51,0,0,1-1,.68,5.41,5.41,0,0,1-1.17.42A5.6,5.6,0,0,1,30,28.63Zm0-.72a2.09,2.09,0,0,0,1.1-.28,2.48,2.48,0,0,0,.79-.79,3.83,3.83,0,0,0,.49-1.2,6.61,6.61,0,0,0,.17-1.52,6.29,6.29,0,0,0-.17-1.49,3.59,3.59,0,0,0-.49-1.16,2.26,2.26,0,0,0-.79-.75,2.38,2.38,0,0,0-2.2,0,2.38,2.38,0,0,0-.8.75,3.82,3.82,0,0,0-.48,1.16,6.3,6.3,0,0,0-.16,1.49,6.63,6.63,0,0,0,.16,1.52,4.07,4.07,0,0,0,.48,1.2,2.62,2.62,0,0,0,.8.79A2.09,2.09,0,0,0,30,27.91Z" transform="translate(-4.99)"/>
          <path class="cls-4" d="M37.6,19.91h3.19a5.6,5.6,0,0,1,1.45.17,3.39,3.39,0,0,1,1,.48,2.17,2.17,0,0,1,.62.74,2.26,2.26,0,0,1,.2.94,1.81,1.81,0,0,1-.14.69,2,2,0,0,1-.39.59,2.53,2.53,0,0,1-.62.49,4.39,4.39,0,0,1-.79.35l3,4.08H42.91l-2.86-3.86h-.37v3.86H37.6Zm2.08,3.92h.46a2.24,2.24,0,0,0,.7-.1,1.74,1.74,0,0,0,.57-.31,1.3,1.3,0,0,0,.37-.49,1.51,1.51,0,0,0,.14-.65,1.71,1.71,0,0,0-.11-.62,1.46,1.46,0,0,0-.28-.49,1.28,1.28,0,0,0-.44-.32,1.47,1.47,0,0,0-.56-.11h-.85Z" transform="translate(-4.99)"/>
          <path class="cls-4" d="M53.9,19.91H57a8,8,0,0,1,2.19.28,5.26,5.26,0,0,1,1.72.81A3.84,3.84,0,0,1,62,22.32a3.92,3.92,0,0,1,.39,1.78,4.18,4.18,0,0,1-.34,1.69,4,4,0,0,1-1,1.38,4.82,4.82,0,0,1-1.6.93,6.3,6.3,0,0,1-2.17.34H53.9ZM56,27.57h1.11a3,3,0,0,0,1.16-.23,2.61,2.61,0,0,0,1-.67,3,3,0,0,0,.64-1.08,4.2,4.2,0,0,0,.24-1.47,4.08,4.08,0,0,0-.22-1.33,3.26,3.26,0,0,0-.62-1.06,2.89,2.89,0,0,0-1-.71,2.77,2.77,0,0,0-1.2-.25H56Z" transform="translate(-4.99)"/>
          <path class="cls-4" d="M65.18,19.91h2.08v8.53H65.18Z" transform="translate(-4.99)"/>
          <path class="cls-4" d="M72.41,24.17a3.89,3.89,0,0,0,.25,1.46,3.35,3.35,0,0,0,.66,1.07,2.68,2.68,0,0,0,1,.65,2.84,2.84,0,0,0,1.12.23,2.12,2.12,0,0,0,.83-.16A2.85,2.85,0,0,0,77,27a5.15,5.15,0,0,0,.63-.61c.2-.24.38-.48.56-.73l.88.64a5.48,5.48,0,0,1-.69.87,5,5,0,0,1-.89.75,4.87,4.87,0,0,1-1.08.51,3.86,3.86,0,0,1-1.23.19,6.2,6.2,0,0,1-2-.32,4.91,4.91,0,0,1-1.6-.91A4.13,4.13,0,0,1,70.46,26a4.37,4.37,0,0,1-.37-1.83,4.45,4.45,0,0,1,.36-1.8,4.13,4.13,0,0,1,1-1.41A4.66,4.66,0,0,1,73,20a5.79,5.79,0,0,1,2-.33,5.06,5.06,0,0,1,1.34.17,4.83,4.83,0,0,1,1.11.48,4.18,4.18,0,0,1,.89.73A5.75,5.75,0,0,1,79,22l-.88.62a7.94,7.94,0,0,0-.58-.72,4.24,4.24,0,0,0-.68-.6,3.4,3.4,0,0,0-.75-.4,2.29,2.29,0,0,0-.82-.15,3,3,0,0,0-1.11.22,2.55,2.55,0,0,0-.93.66,3,3,0,0,0-.64,1.06A4.16,4.16,0,0,0,72.41,24.17Z" transform="translate(-4.99)"/>
        </g>
        <g class="cls-3">
          <path class="cls-4" d="M57.63,42.64a1.84,1.84,0,0,0-.15-.43,1.5,1.5,0,0,0-.25-.4,1.48,1.48,0,0,0-.36-.29,1.22,1.22,0,0,0-.49-.12,1.59,1.59,0,0,0-.66.14,1.46,1.46,0,0,0-.49.4,1.62,1.62,0,0,0-.31.58,2.18,2.18,0,0,0-.12.72,3.87,3.87,0,0,0,.12,1,2.93,2.93,0,0,0,.37.82,2.06,2.06,0,0,0,.58.56,1.46,1.46,0,0,0,.77.21,1.61,1.61,0,0,0,.65-.11,1.47,1.47,0,0,0,.48-.31,2,2,0,0,0,.36-.46,5.77,5.77,0,0,0,.27-.56l.32.13a4,4,0,0,1-.38.91,3,3,0,0,1-.55.67,2.2,2.2,0,0,1-.71.41,2.4,2.4,0,0,1-.85.13,2.25,2.25,0,0,1-1-.22A2.6,2.6,0,0,1,53.91,45a2.57,2.57,0,0,1-.19-1,2.88,2.88,0,0,1,.11-.78,3.41,3.41,0,0,1,.29-.71,3.12,3.12,0,0,1,.44-.59,3.6,3.6,0,0,1,.58-.45,2.89,2.89,0,0,1,.67-.29,2.25,2.25,0,0,1,.74-.09,2.49,2.49,0,0,1,.61.08,2.17,2.17,0,0,1,.54.21,1.79,1.79,0,0,1,.43.34,1.44,1.44,0,0,1,.29.45Z" transform="translate(-4.99)"/>
          <path class="cls-4" d="M63.56,46.6a1,1,0,0,1-.35-.3.77.77,0,0,1-.14-.44l-.37.29a2.8,2.8,0,0,1-.4.27,2.22,2.22,0,0,1-.47.2,2.27,2.27,0,0,1-.61.07,1.48,1.48,0,0,1-.57-.11,1.17,1.17,0,0,1-.42-.29,1.12,1.12,0,0,1-.27-.43,1.19,1.19,0,0,1-.09-.53A1.39,1.39,0,0,1,60,44.7a1.66,1.66,0,0,1,.38-.49,2.8,2.8,0,0,1,.56-.39,7,7,0,0,1,.68-.3l.74-.23.74-.18v-.34a2.79,2.79,0,0,0,0-.62,1,1,0,0,0-.16-.41.58.58,0,0,0-.28-.23,1.19,1.19,0,0,0-.4-.07,1,1,0,0,0-.76.32,1.28,1.28,0,0,0-.24.35,1.53,1.53,0,0,0-.13.43l-1,0a1.53,1.53,0,0,1,.25-.62,1.8,1.8,0,0,1,.5-.45,2.5,2.5,0,0,1,.69-.28,3.42,3.42,0,0,1,.79-.09,3.06,3.06,0,0,1,.88.12,1.52,1.52,0,0,1,.57.29,1,1,0,0,1,.31.46,2.1,2.1,0,0,1,.08.59l0,3.33a.71.71,0,0,0,.14.45,1,1,0,0,0,.35.3Zm-.45-3.15-.49.16-.48.21-.46.25a2.92,2.92,0,0,0-.38.29,1.5,1.5,0,0,0-.26.33.7.7,0,0,0-.1.36,1,1,0,0,0,.07.38.94.94,0,0,0,.19.32.9.9,0,0,0,.27.21.8.8,0,0,0,.33.08,1.28,1.28,0,0,0,.66-.17l.31-.18.31-.22Z" transform="translate(-4.99)"/>
          <path class="cls-4" d="M67.5,46.4a1.34,1.34,0,0,0,.4-.06,1.11,1.11,0,0,0,.32-.18.72.72,0,0,0,.21-.25.84.84,0,0,0,.08-.3.77.77,0,0,0-.12-.43,1.29,1.29,0,0,0-.32-.34,2.93,2.93,0,0,0-.46-.27l-.52-.26c-.18-.09-.36-.18-.53-.28a2.22,2.22,0,0,1-.45-.34,1.81,1.81,0,0,1-.32-.46,1.4,1.4,0,0,1-.12-.6,1.21,1.21,0,0,1,.15-.6,1.43,1.43,0,0,1,.38-.47,2.06,2.06,0,0,1,.59-.31,2.45,2.45,0,0,1,.74-.1,3.9,3.9,0,0,1,.5,0,1.74,1.74,0,0,1,.89.46,3.52,3.52,0,0,1,.46.52l-.4.35a2.3,2.3,0,0,0-.67-.76,1.45,1.45,0,0,0-.8-.25,1.42,1.42,0,0,0-.42.05.79.79,0,0,0-.32.15.77.77,0,0,0-.22.22.57.57,0,0,0-.08.28.73.73,0,0,0,.13.43A1.59,1.59,0,0,0,67,43a5.65,5.65,0,0,0,.5.27l.57.25.57.29a2.58,2.58,0,0,1,.5.34,1.7,1.7,0,0,1,.35.45,1.26,1.26,0,0,1,.12.6,1.53,1.53,0,0,1-.13.64,1.48,1.48,0,0,1-.39.51,2,2,0,0,1-.64.34,2.8,2.8,0,0,1-.91.11,2.59,2.59,0,0,1-.48,0,2.46,2.46,0,0,1-.51-.15,3.1,3.1,0,0,1-.5-.31,3,3,0,0,1-.48-.52l.44-.39a3.85,3.85,0,0,0,.37.47,1.53,1.53,0,0,0,.36.32,1.23,1.23,0,0,0,.38.19A2.62,2.62,0,0,0,67.5,46.4Z" transform="translate(-4.99)"/>
          <path class="cls-4" d="M72.21,41.31l0,3.85a.85.85,0,0,0,.09.38.93.93,0,0,0,.25.31,1.25,1.25,0,0,0,.37.22,1.44,1.44,0,0,0,.46.08,1.06,1.06,0,0,0,.34-.06A1.55,1.55,0,0,0,74,45.9a1.7,1.7,0,0,0,.33-.27,2,2,0,0,0,.26-.34l0-3.95,1.06,0-.07,5.4H74.6v-1a1.83,1.83,0,0,1-.36.44,3.1,3.1,0,0,1-.46.35,2.71,2.71,0,0,1-.52.24,1.8,1.8,0,0,1-.5.08,1.66,1.66,0,0,1-.66-.14,1.79,1.79,0,0,1-.54-.37,1.58,1.58,0,0,1-.35-.53,1.65,1.65,0,0,1-.13-.66l0-3.84Z" transform="translate(-4.99)"/>
          <path class="cls-4" d="M80.9,46.83a.92.92,0,0,1-.35-.3.71.71,0,0,1-.14-.45c-.13.1-.25.19-.37.3a3.51,3.51,0,0,1-.4.27,2.29,2.29,0,0,1-.48.19,2.13,2.13,0,0,1-.6.08,1.7,1.7,0,0,1-.57-.11,1.48,1.48,0,0,1-.43-.29,1.36,1.36,0,0,1-.27-.43,1.61,1.61,0,0,1-.09-.54,1.38,1.38,0,0,1,.15-.62,1.55,1.55,0,0,1,.38-.5,2.89,2.89,0,0,1,.56-.38,6.06,6.06,0,0,1,.68-.3c.24-.09.48-.16.74-.23l.74-.19V43a2.87,2.87,0,0,0,0-.63,1.1,1.1,0,0,0-.15-.41.6.6,0,0,0-.28-.22,1.19,1.19,0,0,0-.41-.08.91.91,0,0,0-.41.09,1.36,1.36,0,0,0-.34.23,1.21,1.21,0,0,0-.24.35,1.33,1.33,0,0,0-.13.43h-1a1.26,1.26,0,0,1,.25-.62,1.67,1.67,0,0,1,.5-.45,2.13,2.13,0,0,1,.69-.28,2.56,2.56,0,0,1,.79-.09,3.15,3.15,0,0,1,.88.11,1.4,1.4,0,0,1,.57.3,1,1,0,0,1,.3.45,1.87,1.87,0,0,1,.09.59l0,3.34a.77.77,0,0,0,.14.44,1,1,0,0,0,.35.3Zm-.46-3.15-.48.16a4.25,4.25,0,0,0-.49.21,3.25,3.25,0,0,0-.45.25,1.9,1.9,0,0,0-.38.29,1.19,1.19,0,0,0-.27.33.88.88,0,0,0-.1.36,1,1,0,0,0,.07.38,1.08,1.08,0,0,0,.19.31.85.85,0,0,0,.28.22.72.72,0,0,0,.32.08,1.34,1.34,0,0,0,.35,0l.31-.13a1.92,1.92,0,0,0,.31-.18l.31-.23Z" transform="translate(-4.99)"/>
          <path class="cls-4" d="M84.28,46.87H83.21l.1-7.86.77-.29h.31Z" transform="translate(-4.99)"/>
        </g>
        <path class="cls-4" d="M86.88,45.72A.71.71,0,0,1,87.6,45a.7.7,0,0,1,.71.75.72.72,0,1,1-1.43,0Z" transform="translate(-4.99)"/>
      </g>
    </g>
  </g>
</svg>
